HIERARCHY
ROOT hip
{
  OFFSET 58.9102 27.8288 94.7501
  CHANNELS 6 Xposition Yposition Zposition Zrotation Xrotation Yrotation
  JOINT abdomen
  {
    OFFSET 0 20.6881 -0.73152
    CHANNELS 3 Zrotation Xrotation Yrotation
    JOINT chest
    {
      OFFSET 0 11.7043 -0.48768
      CHANNELS 3 Zrotation Xrotation Yrotation
      JOINT neck
      {
        OFFSET 0 22.1894 -2.19456
        CHANNELS 3 Zrotation Xrotation Yrotation
        JOINT head
        {
          OFFSET -0.24384 7.07133 1.2192
          CHANNELS 3 Zrotation Xrotation Yrotation
          JOINT leftEye
          {
            OFFSET 4.14528 8.04674 8.04672
            CHANNELS 3 Zrotation Xrotation Yrotation
            End Site
            {
              OFFSET 1 0 0
            }
          }
          JOINT rightEye
          {
            OFFSET -3.6576 8.04674 8.04672
            CHANNELS 3 Zrotation Xrotation Yrotation
            End Site
            {
              OFFSET 1 0 0
            }
          }
        }
      }
      JOINT rCollar
      {
        OFFSET -2.68224 19.2634 -4.8768
        CHANNELS 3 Zrotation Xrotation Yrotation
        JOINT rShldr
        {
          OFFSET -8.77824 -1.95073 1.46304
          CHANNELS 3 Zrotation Xrotation Yrotation
          JOINT rForeArm
          {
            OFFSET -28.1742 -1.7115 0.48768
            CHANNELS 3 Zrotation Xrotation Yrotation
            JOINT rHand
            {
              OFFSET -22.5879 0.773209 7.07136
              CHANNELS 3 Zrotation Xrotation Yrotation
              JOINT rThumb1
              {
                OFFSET -1.2192 -0.487915 3.41376
                CHANNELS 3 Zrotation Xrotation Yrotation
                JOINT rThumb2
                {
                  OFFSET -3.37035 -0.52449 3.41376
                  CHANNELS 3 Zrotation Xrotation Yrotation
                  End Site
                  {
                    OFFSET -1.78271 -1.18214 1.43049
                  }
                }
              }
              JOINT rIndex1
              {
                OFFSET -7.75947 0.938293 5.60832
                CHANNELS 3 Zrotation Xrotation Yrotation
                JOINT rIndex2
                {
                  OFFSET -2.54057 -0.884171 1.56538
                  CHANNELS 3 Zrotation Xrotation Yrotation
                  End Site
                  {
                    OFFSET -1.62519 -0.234802 1.16502
                  }
                }
              }
              JOINT rMid1
              {
                OFFSET -8.24714 1.18213 3.41376
                CHANNELS 3 Zrotation Xrotation Yrotation
                JOINT rMid2
                {
                  OFFSET -3.10165 -0.590103 1.0647
                  CHANNELS 3 Zrotation Xrotation Yrotation
                  End Site
                  {
                    OFFSET -2.48547 -0.328903 0.83742
                  }
                }
              }
              JOINT rRing1
              {
                OFFSET -8.82822 0.546677 1.51678
                CHANNELS 3 Zrotation Xrotation Yrotation
                JOINT rRing2
                {
                  OFFSET -2.60934 -0.819778 -0.0198488
                  CHANNELS 3 Zrotation Xrotation Yrotation
                  End Site
                  {
                    OFFSET -2.33842 -0.294052 0.168128
                  }
                }
              }
              JOINT rPinky1
              {
                OFFSET -8.27202 -0.0477905 -0.4584
                CHANNELS 3 Zrotation Xrotation Yrotation
                JOINT rPinky2
                {
                  OFFSET -1.82734 -0.647385 -0.700984
                  CHANNELS 3 Zrotation Xrotation Yrotation
                  End Site
                  {
                    OFFSET -1.69225 -0.51767 -0.607171
                  }
                }
              }
            }
          }
        }
      }
      JOINT lCollar
      {
        OFFSET 2.68224 19.2634 -4.8768
        CHANNELS 3 Zrotation Xrotation Yrotation
        JOINT lShldr
        {
          OFFSET 8.77824 -1.95073 1.46304
          CHANNELS 3 Zrotation Xrotation Yrotation
          JOINT lForeArm
          {
            OFFSET 28.1742 -1.7115 0.48768
            CHANNELS 3 Zrotation Xrotation Yrotation
            JOINT lHand
            {
              OFFSET 22.5879 0.773209 7.07136
              CHANNELS 3 Zrotation Xrotation Yrotation
              JOINT lThumb1
              {
                OFFSET 1.2192 -0.487915 3.41376
                CHANNELS 3 Zrotation Xrotation Yrotation
                JOINT lThumb2
                {
                  OFFSET 3.37035 -0.52449 3.41376
                  CHANNELS 3 Zrotation Xrotation Yrotation
                  End Site
                  {
                    OFFSET 1.78271 -1.18214 1.43049
                  }
                }
              }
              JOINT lIndex1
              {
                OFFSET 7.75947 0.938293 5.60832
                CHANNELS 3 Zrotation Xrotation Yrotation
                JOINT lIndex2
                {
                  OFFSET 2.54057 -0.884171 1.56538
                  CHANNELS 3 Zrotation Xrotation Yrotation
                  End Site
                  {
                    OFFSET 1.62519 -0.234802 1.16502
                  }
                }
              }
              JOINT lMid1
              {
                OFFSET 8.24714 1.18213 3.41376
                CHANNELS 3 Zrotation Xrotation Yrotation
                JOINT lMid2
                {
                  OFFSET 3.10165 -0.590103 1.0647
                  CHANNELS 3 Zrotation Xrotation Yrotation
                  End Site
                  {
                    OFFSET 2.48547 -0.328903 0.83742
                  }
                }
              }
              JOINT lRing1
              {
                OFFSET 8.82822 0.546677 1.51678
                CHANNELS 3 Zrotation Xrotation Yrotation
                JOINT lRing2
                {
                  OFFSET 2.60934 -0.819778 -0.0198488
                  CHANNELS 3 Zrotation Xrotation Yrotation
                  End Site
                  {
                    OFFSET 2.33842 -0.294052 0.168128
                  }
                }
              }
              JOINT lPinky1
              {
                OFFSET 8.27202 -0.0477905 -0.4584
                CHANNELS 3 Zrotation Xrotation Yrotation
                JOINT lPinky2
                {
                  OFFSET 1.82734 -0.647385 -0.700984
                  CHANNELS 3 Zrotation Xrotation Yrotation
                  End Site
                  {
                    OFFSET 1.69225 -0.51767 -0.607171
                  }
                }
              }
            }
          }
        }
      }
    }
  }
  JOINT rButtock
  {
    OFFSET -8.77824 4.35084 1.2192
    CHANNELS 3 Zrotation Xrotation Yrotation
    JOINT rThigh
    {
      OFFSET 0 -1.70687 -2.19456
      CHANNELS 3 Zrotation Xrotation Yrotation
      JOINT rShin
      {
        OFFSET 0 -36.8199 0.73152
        CHANNELS 3 Zrotation Xrotation Yrotation
        JOINT rFoot
        {
          OFFSET 0.73152 -45.1104 -5.12064
          CHANNELS 3 Zrotation Xrotation Yrotation
          End Site
          {
            OFFSET -1.1221 -3.69964 12.103
          }
        }
      }
    }
  }
  JOINT lButtock
  {
    OFFSET 8.77824 4.35084 1.2192
    CHANNELS 3 Zrotation Xrotation Yrotation
    JOINT lThigh
    {
      OFFSET 0 -1.70687 -2.19456
      CHANNELS 3 Zrotation Xrotation Yrotation
      JOINT lShin
      {
        OFFSET 0 -36.8199 0.73152
        CHANNELS 3 Zrotation Xrotation Yrotation
        JOINT lFoot
        {
          OFFSET -0.73152 -45.1104 -5.12064
          CHANNELS 3 Zrotation Xrotation Yrotation
          End Site
          {
            OFFSET 1.1221 -3.69964 12.103
          }
        }
      }
    }
  }
}
MOTION
Frames:	4
Frame Time:	0.00833333
72.1991 124.799 59.6657 3.68675 -8.64571 -70.8939 7.4381 9.67343 -6.70009 7.11887 2.08554 -1.71051 -3.90655 14.8317 -4.01408 14.1624 -16.4424 -6.13055 -0 0 0 -0 0 0 1.0004e-013 2.11746e-012 -5.97805e-013 -6.37191 -37.0074 -14.1415 -24.5516 -20.1709 51.2925 -6.50492 -56.5267 -12.1775 1.65463e-009 -7.42584e-009 4.83524e-009 2.63223e-009 -1.32284e-008 8.3881e-009 1.65464e-009 -7.42583e-009 4.83521e-009 7.73091 5.47488 0.417314 1.65463e-009 -7.42584e-009 4.83523e-009 2.90554 0.965183 0.102902 1.65464e-009 -7.42584e-009 4.83523e-009 10.2786 0.731801 0.0259123 1.65463e-009 -7.42584e-009 4.83523e-009 2.22167 -0.733487 -0.20892 9.99196e-014 2.11744e-012 -5.98003e-013 -37.1876 64.3841 44.2543 8.44454 -3.26596 -14.8908 0.18621 -13.9271 1.98118 4.26217e-009 1.58579e-008 -5.67631e-009 7.41118e-009 2.7526e-008 -9.7498e-009 4.26217e-009 1.58579e-008 -5.6763e-009 -7.73091 5.47488 -0.417314 4.26218e-009 1.58579e-008 -5.67631e-009 -2.90554 0.965183 -0.102902 4.26217e-009 1.58579e-008 -5.67631e-009 -10.2786 0.731801 -0.0259123 4.26217e-009 1.58579e-008 -5.67632e-009 -2.22167 -0.733487 0.20892 -2.03217e-016 0 -3.88251e-019 -12.1537 -30.2606 0.934038 -4.11025 77.4036 3.96429 1.65436 13.5956 -8.95854 2.03217e-016 0 3.88251e-019 -8.58117 -11.1405 20.5556 1.19801 61.0872 -1.48264 -0.598854 19.4622 2.28937 
72.7039 126.65 59.7102 3.843 -8.88466 -74.3106 7.90096 11.8767 -6.21881 7.34471 2.20814 -1.56323 -4.10653 15.1609 -4.45204 14.5509 -16.377 -6.97783 -0 0 0 -0 0 0 4.16485e-014 1.57018e-012 -4.47627e-013 -1.47798 -35.9355 -11.4547 -23.9947 -19.0864 49.5503 -8.34923 -60.5243 -14.3279 1.47541e-009 -9.85224e-009 4.2487e-009 2.33057e-009 -1.74128e-008 7.37342e-009 1.47542e-009 -9.85223e-009 4.24867e-009 7.73091 5.47488 0.417314 1.47541e-009 -9.85224e-009 4.24869e-009 2.90554 0.965183 0.102902 1.47542e-009 -9.85224e-009 4.24869e-009 10.2786 0.731801 0.0259123 1.47541e-009 -9.85224e-009 4.24869e-009 2.22167 -0.733487 -0.20892 4.15854e-014 1.57015e-012 -4.47823e-013 -47.3025 59.7072 50.7163 7.69148 -2.8633 -13.5222 0.0726177 -9.31974 1.31229 2.03078e-009 -6.38104e-010 -5.15252e-009 3.53642e-009 -1.03148e-009 -8.8805e-009 2.03078e-009 -6.381e-010 -5.15251e-009 -7.73091 5.47488 -0.417314 2.03079e-009 -6.3809e-010 -5.15252e-009 -2.90554 0.965183 -0.102902 2.03078e-009 -6.38096e-010 -5.15252e-009 -10.2786 0.731801 -0.0259123 2.03078e-009 -6.38101e-010 -5.15253e-009 -2.22167 -0.733487 0.20892 -2.03217e-016 0 -3.88251e-019 -11.7311 -32.9768 1.48105 -7.20803 82.0971 7.02194 1.03556 12.1872 -7.55413 2.03217e-016 0 3.88251e-019 -8.58978 -14.173 21.4054 1.56134 65.2932 -1.79433 -0.849621 18.1322 3.41288 
73.2527 128.38 59.7672 4.17213 -9.19315 -77.5681 8.42323 13.9531 -5.76734 7.4247 2.35855 -1.42672 -4.25808 15.4219 -4.93449 14.9048 -16.407 -7.88752 -0 0 0 -0 0 0 -6.34032e-015 1.13905e-012 -3.33859e-013 3.33597 -34.3206 -8.81567 -23.4074 -18.0295 47.7863 -9.9627 -63.1743 -16.1357 1.30754e-009 -1.12368e-008 3.73055e-009 2.0532e-009 -1.97604e-008 6.47606e-009 1.30755e-009 -1.12368e-008 3.73052e-009 7.73091 5.47488 0.417314 1.30754e-009 -1.12368e-008 3.73054e-009 2.90554 0.965183 0.102902 1.30755e-009 -1.12368e-008 3.73054e-009 10.2786 0.731801 0.0259123 1.30754e-009 -1.12368e-008 3.73054e-009 2.22167 -0.733487 -0.20892 -6.38211e-015 1.13902e-012 -3.34058e-013 -54.3577 54.8499 53.8934 7.01647 -2.51632 -12.3135 0.0363361 -5.43275 0.765842 3.72134e-010 -1.14511e-008 -4.63865e-009 6.55923e-010 -1.97522e-008 -8.01589e-009 3.72136e-010 -1.1451e-008 -4.63864e-009 -7.73091 5.47488 -0.417314 3.7214e-010 -1.1451e-008 -4.63865e-009 -2.90554 0.965183 -0.102902 3.72129e-010 -1.1451e-008 -4.63865e-009 -10.2786 0.731801 -0.0259123 3.72136e-010 -1.1451e-008 -4.63866e-009 -2.22167 -0.733487 0.20892 -2.03217e-016 0 -3.88251e-019 -11.1219 -35.7264 1.88386 -17.8201 86.4991 17.605 0.609757 10.6938 -6.59962 2.03217e-016 0 3.88251e-019 -8.13767 -17.5263 21.8714 2.05922 69.5442 -2.26554 -0.834427 16.9525 3.81587 
73.8378 130.001 59.8489 4.72549 -9.50065 -80.8698 9.08421 15.8234 -5.34863 7.33013 2.55885 -1.30477 -4.34887 15.5768 -5.48668 15.1304 -16.4735 -8.93342 -0 0 0 -0 0 0 -4.82116e-014 8.46245e-013 -2.6795e-013 7.98834 -31.9037 -6.22986 -22.7833 -16.9996 45.8948 -10.6907 -64.1888 -16.9363 1.17907e-009 -1.12598e-008 3.31923e-009 1.85021e-009 -1.96893e-008 5.763e-009 1.17908e-009 -1.12598e-008 3.31921e-009 7.73091 5.47488 0.417314 1.17907e-009 -1.12598e-008 3.31922e-009 2.90554 0.965183 0.102902 1.17908e-009 -1.12598e-008 3.31922e-009 10.2786 0.731801 0.0259123 1.17907e-009 -1.12598e-008 3.31922e-009 2.22167 -0.733487 -0.20892 -4.82979e-014 8.46214e-013 -2.68161e-013 -59.445 49.8211 54.8507 6.45375 -2.24546 -11.3065 0.0173616 -2.4523 0.348668 -4.95994e-010 -1.41691e-008 -4.131e-009 -8.52595e-010 -2.4462e-008 -7.14418e-009 -4.95991e-010 -1.41691e-008 -4.13099e-009 -7.73091 5.47488 -0.417314 -4.95988e-010 -1.4169e-008 -4.131e-009 -2.90554 0.965183 -0.102902 -4.95999e-010 -1.41691e-008 -4.131e-009 -10.2786 0.731801 -0.0259123 -4.95991e-010 -1.41691e-008 -4.13101e-009 -2.22167 -0.733487 0.20892 -2.03217e-016 0 -3.88251e-019 -10.2352 -38.5911 2.18203 -128.58 88.5338 128.352 0.339646 9.13202 -6.12824 2.03217e-016 0 3.88251e-019 -7.21281 -21.388 21.8633 2.86826 73.9451 -3.07466 -0.551195 15.9608 3.30706 
